<svg width="24" height="24" viewBox="0 0 24 24" fill="none" xmlns="http://www.w3.org/2000/svg">
<path fill-rule="evenodd" clip-rule="evenodd" d="M19.1414 7.14862C20.2785 8.24409 21.2589 9.65972 22.0828 11.3955C22.172 11.5842 22.2182 11.7903 22.2182 11.999C22.2182 12.2077 22.172 12.4138 22.0828 12.6025C19.8656 17.2947 16.5047 19.6408 12 19.6408C10.375 19.6408 8.89845 19.3342 7.57033 18.7209L8.86244 17.4288C9.81869 17.7785 10.8645 17.9533 12 17.9533C15.7828 17.9533 18.5508 16.0361 20.5008 12.0002C19.7684 10.4861 18.9213 9.27042 17.9489 8.34112L19.1414 7.14862ZM5.11642 17.091L6.31103 15.8964C5.22892 14.9414 4.29611 13.6474 3.49923 12.0002C5.45158 7.96425 8.21954 6.04706 12 6.04706C13.2783 6.04706 14.4406 6.26644 15.495 6.71245L16.7651 5.44237C15.3518 4.7205 13.7635 4.35956 12 4.35956C7.49533 4.35956 4.13439 6.70566 1.9172 11.3978C1.82808 11.5866 1.78186 11.7927 1.78186 12.0014C1.78186 12.2101 1.82808 12.4162 1.9172 12.6049C2.80298 14.4705 3.86939 15.9659 5.11642 17.091ZM13.8474 8.36011C13.067 7.94377 12.1736 7.78926 11.2988 7.91936C10.424 8.04946 9.61413 8.45728 8.98874 9.08267C8.36336 9.70805 7.95553 10.5179 7.82543 11.3927C7.69533 12.2675 7.84985 13.161 8.26618 13.9413L9.40572 12.8018C9.32295 12.5426 9.28097 12.2722 9.28126 12.0002C9.28167 11.5869 9.37957 11.1795 9.56699 10.8112C9.75442 10.4428 10.0261 10.1239 10.3599 9.88029C10.6938 9.63666 11.0804 9.47522 11.4883 9.40908C11.8963 9.34294 12.3141 9.37397 12.7078 9.49964L13.8474 8.36011Z" fill="#002538"/>
<path fill-rule="evenodd" clip-rule="evenodd" d="M13.8474 8.36011C13.067 7.94377 12.1736 7.78926 11.2988 7.91936C10.424 8.04946 9.61413 8.45728 8.98874 9.08267C8.36336 9.70805 7.95553 10.5179 7.82543 11.3927C7.69533 12.2675 7.84985 13.161 8.26618 13.9413L9.40572 12.8018C9.32295 12.5426 9.28097 12.2722 9.28126 12.0002C9.28167 11.5869 9.37957 11.1795 9.56699 10.8112C9.75442 10.4428 10.0261 10.1239 10.3599 9.88029C10.6938 9.63666 11.0804 9.47522 11.4883 9.40908C11.8963 9.34294 12.3141 9.37397 12.7078 9.49964L13.8474 8.36011Z" fill="#FAB95B"/>
<path d="M11.9063 14.6252C11.8252 14.6252 11.7453 14.6214 11.6661 14.6142L10.4281 15.8521C11.1727 16.1373 11.9839 16.2007 12.7638 16.0346C13.5436 15.8685 14.2586 15.4801 14.8224 14.9163C15.3862 14.3525 15.7746 13.6375 15.9407 12.8576C16.1068 12.0778 16.0434 11.2666 15.7583 10.522L14.5203 11.7599C14.5276 11.8392 14.5313 11.9191 14.5313 12.0002C14.5315 12.3449 14.4637 12.6864 14.3319 13.0049C14.2 13.3235 14.0067 13.613 13.7629 13.8567C13.5191 14.1005 13.2296 14.2939 12.9111 14.4257C12.5925 14.5576 12.2511 14.6254 11.9063 14.6252Z" fill="#FAB95B"/>
<rect x="2.49927" y="19.6948" width="23.945" height="1.80122" rx="0.2" transform="rotate(-44.9814 2.49927 19.6948)" fill="#002538"/>
</svg>
